<svg width="27" height="24" viewBox="0 0 27 24" fill="none" xmlns="http://www.w3.org/2000/svg">
<path d="M10.3195 2.70354C9.09015 4.2903 7.11804 6.83574 6.68716 9.89869C6.51948 11.0907 6.35177 13.1968 8.73677 13.6736C10.918 14.1097 13.395 18.0446 10.4137 22.2169C8.94373 24.2742 3.26427 25.7932 0.724676 19.4354C-0.703839 15.8591 -0.989539 7.03768 9.29575 0.361995C10.3975 -0.353189 12.1113 -0.0352947 11.159 1.55408C10.9849 1.84477 10.685 2.23178 10.3195 2.70354Z" fill="#FED464"/>
<path d="M25.5308 2.70353C24.3014 4.29029 22.3293 6.83574 21.8984 9.89869C21.7307 11.0907 21.563 13.1968 23.948 13.6736C26.1292 14.1097 28.6062 18.0446 25.625 22.2169C24.155 24.2742 18.4755 25.7932 15.9359 19.4354C14.5074 15.8591 14.2217 7.03768 24.507 0.361995C25.6088 -0.353189 27.3226 -0.0352947 26.3703 1.55408C26.1961 1.84476 25.8963 2.23178 25.5308 2.70353Z" fill="#FED464"/>
</svg>
