<svg width="185" height="185" viewBox="0 0 185 185" fill="none" xmlns="http://www.w3.org/2000/svg">
<path d="M165.265 104.913L177.195 104.921L177.594 103.908L178.674 104.188L177.632 108.204L176.552 107.923L176.689 106.588L169.456 106.436L167.768 106.397L167.746 106.446L169.209 107.353L176.661 111.947L176.279 113.419L167.527 113.835L165.716 113.883L165.703 113.934L167.273 114.813L173.68 118.183L174.236 116.847L175.316 117.128L174.292 121.075L173.212 120.795L173.338 119.783L162.879 114.109L163.292 112.518L172.565 112.055L173.904 112.04L173.917 111.988L172.752 111.332L164.877 106.41L165.265 104.913Z" fill="#0E1412"/>
<path d="M157.486 125.882C157.969 125.018 158.546 124.477 159.216 124.262C159.893 124.049 160.614 124.156 161.381 124.585C161.908 124.879 162.286 125.278 162.515 125.782C162.746 126.293 162.816 126.883 162.725 127.55C162.639 128.221 162.384 128.937 161.958 129.699L161.131 131.18L161.944 131.634C162.445 131.914 162.92 131.978 163.367 131.825C163.812 131.678 164.189 131.328 164.498 130.775C164.692 130.427 164.817 130.101 164.873 129.797C164.934 129.496 164.949 129.199 164.918 128.906L163.849 128.098L164.5 126.931L166.403 127.994C166.497 128.536 166.481 129.098 166.358 129.68C166.239 130.265 166.011 130.859 165.674 131.463C165.111 132.47 164.429 133.126 163.628 133.431C162.827 133.735 161.979 133.637 161.084 133.137L157.087 130.904C156.979 130.844 156.874 130.786 156.772 130.728C156.667 130.676 156.56 130.627 156.452 130.58L155.918 131.339L154.951 130.798L156.164 128.627C156.415 128.707 156.637 128.784 156.83 128.858C157.023 128.933 157.212 129.015 157.397 129.104C157.187 128.604 157.079 128.064 157.074 127.484C157.071 126.912 157.209 126.378 157.486 125.882ZM158.628 126.812C158.347 127.313 158.212 127.838 158.221 128.387C158.23 128.935 158.353 129.394 158.591 129.761L160.095 130.601L160.952 129.067C161.341 128.371 161.466 127.756 161.328 127.223C161.189 126.689 160.916 126.308 160.506 126.079C160.143 125.877 159.802 125.833 159.481 125.95C159.166 126.069 158.882 126.357 158.628 126.812Z" fill="#0E1412"/>
<path d="M149.218 138.204C149.664 137.66 150.177 137.357 150.758 137.295C151.34 137.241 151.982 137.502 152.685 138.078L157.152 141.737L158.104 140.574L159.097 141.388L158.144 142.55L159.919 144.004L158.822 145.343L157.047 143.89L155.738 145.487L154.745 144.674L156.054 143.077L151.587 139.417C151.234 139.128 150.916 138.984 150.633 138.988C150.35 138.991 150.112 139.11 149.919 139.346C149.789 139.505 149.658 139.692 149.525 139.91C149.397 140.131 149.3 140.305 149.234 140.432L148.206 139.897C148.307 139.654 148.452 139.371 148.64 139.048C148.825 138.73 149.018 138.449 149.218 138.204Z" fill="#0E1412"/>
<path d="M140.415 147.089C141.07 146.529 141.769 146.193 142.514 146.08C143.262 145.972 144.002 146.076 144.734 146.39C145.465 146.705 146.136 147.219 146.745 147.931L146.985 148.212C147.572 148.897 147.968 149.622 148.175 150.386C148.381 151.151 148.377 151.898 148.162 152.63C147.947 153.361 147.503 154.014 146.831 154.589C146.248 155.088 145.656 155.428 145.056 155.61C144.451 155.796 143.857 155.849 143.273 155.77L141.754 154.062L142.783 153.183L144.09 154.251C144.374 154.277 144.67 154.24 144.977 154.139C145.284 154.038 145.592 153.857 145.899 153.594C146.291 153.259 146.537 152.848 146.637 152.361C146.733 151.878 146.697 151.373 146.531 150.844C146.364 150.316 146.077 149.814 145.67 149.337L145.43 149.057C144.98 148.531 144.514 148.14 144.031 147.882C143.544 147.628 143.067 147.516 142.599 147.546C142.131 147.584 141.698 147.772 141.302 148.111C140.857 148.492 140.592 148.931 140.507 149.427C140.423 149.923 140.53 150.414 140.829 150.898L139.647 151.91L139.599 151.881C139.267 151.448 139.058 150.956 138.972 150.405C138.887 149.853 138.956 149.289 139.179 148.713C139.402 148.144 139.814 147.603 140.415 147.089Z" fill="#0E1412"/>
<path d="M132.612 153.396L133.141 154.369L132 155.269L137.251 164.929L138.627 164.461L139.16 165.442L136.381 166.953L133.77 162.15C133.7 162.708 133.516 163.211 133.22 163.659C132.923 164.107 132.52 164.47 132.01 164.747C131.114 165.234 130.274 165.344 129.489 165.077C128.704 164.811 128.009 164.121 127.404 163.009L125.205 158.963L123.828 159.431L123.299 158.458L127.338 156.263L127.867 157.236L126.726 158.136L128.934 162.198C129.309 162.888 129.735 163.316 130.213 163.483C130.685 163.653 131.215 163.579 131.802 163.26C132.219 163.033 132.545 162.725 132.781 162.337C133.014 161.957 133.149 161.537 133.186 161.077L130.479 156.096L129.102 156.564L128.573 155.591L132.612 153.396Z" fill="#0E1412"/>
<path d="M103.007 164.095C103.824 163.976 104.581 164.026 105.276 164.245C105.97 164.464 106.588 164.825 107.129 165.326C107.664 165.835 108.111 166.463 108.468 167.21C108.819 167.958 109.064 168.805 109.201 169.75L109.227 169.933C109.364 170.872 109.37 171.751 109.246 172.568C109.116 173.392 108.867 174.124 108.498 174.764C108.124 175.404 107.634 175.928 107.03 176.335C106.426 176.743 105.716 177.006 104.898 177.125C104.034 177.25 103.252 177.204 102.551 176.986C101.85 176.768 101.238 176.404 100.714 175.893C100.184 175.384 99.7488 174.752 99.4082 173.996C99.0685 173.246 98.8304 172.401 98.6941 171.462L98.6675 171.279C98.5304 170.334 98.518 169.454 98.6305 168.638C98.7431 167.822 98.9809 167.095 99.3441 166.456C99.7023 165.824 100.186 165.304 100.796 164.895C101.406 164.487 102.143 164.22 103.007 164.095ZM103.214 165.522C102.373 165.644 101.725 165.951 101.269 166.443C100.808 166.936 100.51 167.575 100.375 168.358C100.241 169.147 100.246 170.038 100.39 171.029L100.419 171.229C100.562 172.215 100.812 173.061 101.169 173.767C101.521 174.48 101.988 175.007 102.571 175.349C103.154 175.696 103.86 175.81 104.69 175.689C105.449 175.579 106.062 175.274 106.528 174.774C106.995 174.274 107.31 173.631 107.474 172.843C107.639 172.061 107.65 171.18 107.508 170.2L107.479 170C107.335 169.015 107.073 168.165 106.691 167.45C106.31 166.742 105.825 166.214 105.236 165.867C104.647 165.527 103.973 165.411 103.214 165.522Z" fill="#0E1412"/>
<path d="M87.6613 164.727C88.6899 164.801 89.4696 165.19 90.0005 165.892C90.5314 166.594 90.7464 167.643 90.6456 169.04L90.3399 173.274L91.4092 173.598L91.3288 174.711L90.2418 174.633L88.5149 174.508L88.9199 168.898C88.9929 167.887 88.8941 167.181 88.6234 166.779C88.3528 166.378 87.9019 166.154 87.2708 166.109C86.6571 166.065 86.1427 166.151 85.7276 166.368C85.3062 166.59 84.9768 166.921 84.7393 167.362L84.3438 172.841L85.5972 173.179L85.5168 174.292L84.2457 174.2L82.5188 174.075L83.1061 165.94L82.0368 165.616L82.1165 164.512L84.7551 164.702L84.7678 166.113C85.1026 165.626 85.5166 165.263 86.0098 165.022C86.4972 164.781 87.0477 164.683 87.6613 164.727Z" fill="#0E1412"/>
<path d="M76.3711 163.397L76.0842 164.467L74.6367 164.333L72.8766 170.895L74.1965 171.504L73.9073 172.582L71.0296 171.81L71.1995 170.6L71.2258 170.434C70.8395 170.834 70.421 171.116 69.9705 171.28C69.5143 171.443 69.0401 171.458 68.5477 171.326C68.3723 171.279 68.1985 171.214 68.0266 171.132C67.8474 171.054 67.722 170.99 67.6503 170.94L68.2878 169.446L69.4325 169.826C69.8664 169.972 70.2644 169.97 70.6266 169.818C70.9872 169.672 71.3012 169.429 71.5686 169.088L72.9644 163.884L71.6445 163.276L71.9314 162.206L76.3711 163.397Z" fill="#0E1412"/>
<path d="M51.2258 152.629L48.2168 164.567L48.9769 165.261L48.3441 166.18L45.0136 163.888L45.6464 162.969L46.714 163.48L48.9677 155.151L49.2945 154.149L49.2511 154.119L48.4174 154.772L41.3513 159.8L42.3232 160.682L41.6904 161.601L38.3671 159.314L38.9999 158.395L39.9268 158.862L50.0022 151.787L51.2258 152.629Z" fill="#0E1412"/>
<path d="M40.87 144.342L40.0761 145.114L38.9009 144.258L34.0304 148.995L34.8529 150.194L34.0527 150.972L31.8467 148.704L37.6937 143.017L36.8713 141.819L37.6652 141.047L40.87 144.342ZM31.4328 151.644L30.1034 152.937L28.835 151.633L30.1644 150.34L31.4328 151.644Z" fill="#0E1412"/>
<path d="M31.7017 133.277C32.1349 133.917 32.3497 134.575 32.346 135.249C32.3342 135.922 32.1264 136.572 31.7226 137.199C31.3189 137.825 30.7384 138.395 29.9812 138.907L29.8283 139.01C28.9837 139.581 28.1615 139.961 27.3615 140.148C26.5616 140.335 25.8309 140.316 25.1697 140.092C24.5035 139.87 23.9522 139.437 23.5156 138.791C23.2006 138.325 23.0106 137.856 22.9457 137.383C22.8727 136.909 22.9135 136.436 23.068 135.964L19.8572 138.135L20.4559 139.46L19.5312 140.085L18.7287 138.898L17.7588 137.464L27.9954 130.542L27.3968 129.217L28.3141 128.597L29.9586 131.028L29.0981 131.78C29.6313 131.794 30.1164 131.926 30.5536 132.175C30.9875 132.419 31.3702 132.786 31.7017 133.277ZM30.2906 133.7C30.0018 133.273 29.6618 132.98 29.2707 132.82C28.8796 132.66 28.4429 132.605 27.9606 132.655L24.3057 135.127C24.1004 135.534 24.0007 135.952 24.0068 136.379C24.0129 136.807 24.1554 137.227 24.4344 137.639C24.7429 138.095 25.1283 138.383 25.5907 138.502C26.0481 138.624 26.5567 138.602 27.1162 138.436C27.671 138.273 28.2517 137.986 28.8584 137.576L29.0113 137.473C29.8025 136.938 30.3283 136.345 30.589 135.695C30.8496 135.045 30.7501 134.38 30.2906 133.7Z" fill="#0E1412"/>
<path d="M23.9891 119.164C24.3245 119.977 24.4321 120.76 24.312 121.513C24.1864 122.268 23.8615 122.948 23.3371 123.551C22.8105 124.148 22.1139 124.626 21.2473 124.984L20.8898 125.131C20.0558 125.476 19.2406 125.612 18.4444 125.542C17.6406 125.468 16.9317 125.225 16.3178 124.813C15.6963 124.397 15.2458 123.851 14.9664 123.174C14.6399 122.383 14.5297 121.656 14.6355 120.991C14.7392 120.32 15.0303 119.728 15.5088 119.213C15.982 118.701 16.6166 118.281 17.4128 117.952L18.4121 117.54L20.7663 123.243L20.8169 123.25C21.3757 123.007 21.8365 122.703 22.1992 122.337C22.5542 121.969 22.7836 121.557 22.8875 121.102C22.9913 120.648 22.9415 120.174 22.738 119.681C22.5144 119.139 22.243 118.697 21.9237 118.353C21.5967 118.006 21.2363 117.74 20.8425 117.554L21.6242 116.499C22.0572 116.688 22.4866 116.999 22.9124 117.431C23.3306 117.861 23.6895 118.439 23.9891 119.164ZM19.495 123.71L17.8216 119.656L17.6104 119.744C17.1879 119.918 16.8428 120.149 16.575 120.437C16.2996 120.722 16.1286 121.053 16.062 121.429C15.9877 121.802 16.0423 122.21 16.2256 122.654C16.3731 123.012 16.6129 123.293 16.9449 123.498C17.2714 123.706 17.6525 123.831 18.0882 123.873C18.5239 123.915 18.9816 123.872 19.4611 123.743L19.495 123.71Z" fill="#0E1412"/>
<path d="M19.7998 105.311C19.97 106.173 19.9158 106.958 19.6371 107.664C19.3515 108.365 18.8858 108.956 18.24 109.436C17.5884 109.917 16.8028 110.248 15.883 110.43L15.6933 110.467C14.7736 110.649 13.9238 110.64 13.1441 110.442C12.3585 110.244 11.7004 109.876 11.1697 109.335C10.6379 108.789 10.2879 108.091 10.12 107.24C9.94973 106.378 10.0074 105.596 10.2929 104.895C10.5774 104.188 11.0425 103.594 11.6883 103.114C12.3342 102.634 13.1198 102.303 14.0453 102.12L14.235 102.083C15.1605 101.9 16.016 101.907 16.8015 102.105C17.5813 102.303 18.2337 102.673 18.7586 103.214C19.2836 103.756 19.6306 104.455 19.7998 105.311ZM18.4719 105.573C18.3652 105.033 18.1295 104.611 17.7648 104.306C17.3933 103.998 16.9335 103.802 16.3856 103.719C15.8308 103.631 15.2257 103.652 14.5704 103.782L14.3807 103.819C13.7254 103.948 13.1607 104.158 12.6865 104.449C12.2055 104.735 11.8547 105.091 11.6342 105.517C11.4079 105.944 11.3487 106.43 11.4565 106.976C11.5632 107.517 11.8023 107.941 12.1738 108.25C12.5396 108.56 12.9994 108.756 13.5531 108.838C14.101 108.921 14.7026 108.898 15.3579 108.768L15.5476 108.731C16.2029 108.601 16.7711 108.394 17.2522 108.108C17.7274 107.823 18.0782 107.467 18.3045 107.04C18.5239 106.608 18.5797 106.119 18.4719 105.573Z" fill="#0E1412"/>
<path d="M19.572 79.2972L7.64278 79.2888L7.24363 80.3021L6.1632 80.0218L7.20521 76.0063L8.28564 76.2867L8.14795 77.6221L15.3817 77.774L17.0697 77.8125L17.0915 77.7637L15.6287 76.8574L8.17657 72.2631L8.5585 70.7913L17.3109 70.3749L19.1212 70.3271L19.1344 70.276L17.5648 69.3965L11.157 66.0266L10.6015 67.3625L9.52103 67.0822L10.5454 63.1348L11.6258 63.4152L11.4995 64.4266L21.9584 70.1008L21.5456 71.6917L12.2726 72.1547L10.9337 72.1705L10.9205 72.2215L12.085 72.8778L19.9605 77.7999L19.572 79.2972Z" fill="#0E1412"/>
<path d="M27.3517 58.3279C26.8688 59.1924 26.2918 59.7326 25.6209 59.9484C24.9449 60.1614 24.2232 60.0536 23.4559 59.625C22.929 59.3307 22.5512 58.9317 22.3224 58.4281C22.0914 57.9165 22.0214 57.327 22.1123 56.6596C22.1981 55.9894 22.4538 55.2732 22.8796 54.511L23.7068 53.0301L22.8935 52.5758C22.3922 52.2957 21.9177 52.232 21.47 52.3847C21.0252 52.5322 20.6484 52.8822 20.3398 53.4346C20.1455 53.7825 20.0204 54.1086 19.9645 54.4129C19.9035 54.7144 19.8886 55.0114 19.9198 55.304L20.9884 56.1124L20.3369 57.2787L18.434 56.2157C18.3408 55.6737 18.356 55.1117 18.4797 54.5298C18.5983 53.9451 18.8262 53.3509 19.1634 52.7472C19.7263 51.7395 20.4082 51.0835 21.2091 50.7792C22.0099 50.4748 22.858 50.5727 23.7532 51.0727L27.7509 53.3058C27.8583 53.3658 27.9632 53.4244 28.0655 53.4816C28.1706 53.5336 28.2772 53.5831 28.3852 53.63L28.9197 52.8714L29.8865 53.4115L28.6735 55.583C28.4227 55.5033 28.2007 55.4262 28.0073 55.3518C27.814 55.2774 27.625 55.1953 27.4402 55.1055C27.6508 55.6057 27.7585 56.1457 27.7634 56.7257C27.7661 57.2976 27.6288 57.8317 27.3517 58.3279ZM26.2099 57.3982C26.4899 56.8969 26.6254 56.3719 26.6165 55.8232C26.6075 55.2746 26.4842 54.8164 26.2466 54.4488L24.7427 53.6087L23.8855 55.1433C23.4968 55.839 23.3716 56.4537 23.5098 56.9873C23.648 57.5208 23.9217 57.9019 24.331 58.1305C24.6942 58.3334 25.0358 58.3766 25.3559 58.2601C25.6709 58.1407 25.9556 57.8534 26.2099 57.3982Z" fill="#0E1412"/>
<path d="M35.6191 46.0051C35.1735 46.549 34.6603 46.8519 34.0794 46.9139C33.4976 46.9675 32.8555 46.7066 32.1529 46.1311L27.6859 42.4719L26.7335 43.6345L25.7408 42.8214L26.6932 41.6587L24.9186 40.2051L26.0158 38.8657L27.7904 40.3193L29.0993 38.7215L30.0919 39.5347L28.7831 41.1325L33.2501 44.7917C33.6036 45.0813 33.9218 45.2245 34.2046 45.2214C34.4875 45.2182 34.7254 45.0988 34.9185 44.8631C35.0484 44.7045 35.1797 44.5166 35.3121 44.2994C35.44 44.0785 35.5372 43.9044 35.6037 43.777L36.6311 44.3119C36.5304 44.5551 36.3857 44.838 36.1972 45.1607C36.0123 45.4789 35.8196 45.7603 35.6191 46.0051Z" fill="#0E1412"/>
<path d="M44.422 37.1214C43.7674 37.6813 43.068 38.0174 42.3237 38.1297C41.5755 38.2376 40.8355 38.1342 40.1037 37.8195C39.3719 37.5048 38.7013 36.9912 38.0919 36.2788L37.852 35.9983C37.2655 35.3125 36.869 34.5876 36.6626 33.8235C36.4562 33.0593 36.4605 32.3116 36.6754 31.5804C36.8904 30.8491 37.334 30.1959 38.0064 29.6208C38.5897 29.1219 39.1814 28.7815 39.7816 28.5997C40.3861 28.4141 40.9804 28.3607 41.5644 28.4395L43.0832 30.1475L42.0546 31.0273L40.7478 29.9592C40.4631 29.9328 40.1672 29.97 39.8601 30.0708C39.553 30.1715 39.2459 30.3533 38.9386 30.6161C38.5468 30.9512 38.3007 31.3622 38.2005 31.8489C38.1046 32.3318 38.14 32.8374 38.3066 33.3657C38.4732 33.894 38.7603 34.3964 39.1678 34.8728L39.4077 35.1533C39.8571 35.6788 40.3232 36.0704 40.806 36.3283C41.2931 36.5824 41.7706 36.6944 42.2384 36.6644C42.7069 36.6261 43.1392 36.4375 43.5355 36.0985C43.9808 35.7177 44.2456 35.2791 44.33 34.7829C44.4144 34.2866 44.3072 33.7962 44.0084 33.3116L45.1906 32.3004L45.2382 32.329C45.5702 32.7622 45.7791 33.2543 45.8649 33.8054C45.9508 34.3565 45.8819 34.9205 45.6582 35.4973C45.4352 36.0659 45.0231 36.6073 44.422 37.1214Z" fill="#0E1412"/>
<path d="M52.2254 30.8143L51.6965 29.8414L52.8376 28.9409L47.5862 19.2809L46.21 19.749L45.6769 18.7683L48.4568 17.2571L51.0678 22.0601C51.1378 21.5018 51.3211 20.9987 51.6177 20.5506C51.9144 20.1026 52.3175 19.7401 52.8272 19.463C53.7229 18.9761 54.5634 18.866 55.3486 19.1327C56.1339 19.3994 56.8287 20.0888 57.4332 21.2007L59.6328 25.2469L61.009 24.7789L61.5379 25.7519L57.4994 27.9473L56.9705 26.9743L58.1116 26.0739L55.9036 22.0122C55.5286 21.3224 55.1023 20.8939 54.6246 20.7268C54.1521 20.5568 53.6224 20.6313 53.0355 20.9504C52.6185 21.1771 52.2921 21.4845 52.0564 21.8728C51.823 22.2531 51.6879 22.6733 51.6513 23.1334L54.3588 28.114L55.735 27.646L56.2639 28.6189L52.2254 30.8143Z" fill="#0E1412"/>
<path d="M81.8306 20.1149C81.013 20.2336 80.2568 20.1835 79.5619 19.9646C78.867 19.7458 78.2492 19.3854 77.7087 18.8837C77.1731 18.3753 76.7267 17.7473 76.3695 16.9999C76.0181 16.2516 75.7739 15.4048 75.6367 14.4596L75.6102 14.277C75.4738 13.3376 75.4677 12.4593 75.5918 11.6419C75.7209 10.818 75.9699 10.0861 76.3389 9.44643C76.7137 8.80588 77.2031 8.28191 77.8071 7.87452C78.4111 7.46713 79.1219 7.2041 79.9395 7.08543C80.8034 6.96003 81.5858 7.00634 82.2865 7.22436C82.9872 7.44238 83.5995 7.80643 84.1235 8.31653C84.6534 8.82579 85.0886 9.45831 85.4292 10.2141C85.7689 10.9641 86.007 11.8088 86.1433 12.7481L86.1699 12.9308C86.307 13.876 86.3194 14.7564 86.2069 15.572C86.0943 16.3877 85.8565 17.1149 85.4933 17.7538C85.1351 18.386 84.6511 18.9062 84.0413 19.3145C83.4315 19.7227 82.6946 19.9895 81.8306 20.1149ZM81.6236 18.6885C82.4644 18.5664 83.1125 18.2592 83.568 17.7668C84.0293 17.2735 84.3274 16.6352 84.4624 15.8519C84.5965 15.0627 84.5916 14.1723 84.4477 13.1808L84.4186 12.9807C84.2756 11.995 84.0255 11.1491 83.6684 10.443C83.3163 9.73035 82.849 9.20314 82.2665 8.86138C81.6832 8.51383 80.977 8.40023 80.1478 8.52059C79.3881 8.63084 78.7752 8.93591 78.309 9.4358C77.8427 9.93569 77.5276 10.5794 77.3637 11.367C77.1989 12.1488 77.1876 13.0297 77.3298 14.0096L77.3589 14.2097C77.5019 15.1954 77.7645 16.0454 78.1464 16.7597C78.5275 17.4682 79.0126 17.9958 79.6017 18.3425C80.19 18.6834 80.864 18.7987 81.6236 18.6885Z" fill="#0E1412"/>
<path d="M97.1761 19.4828C96.1475 19.4086 95.3678 19.0204 94.8369 18.3182C94.306 17.6161 94.091 16.5666 94.1918 15.1699L94.4975 10.9358L93.4282 10.6118L93.5086 9.49851L94.5956 9.57698L96.3225 9.70166L95.9175 15.3121C95.8445 16.3231 95.9433 17.0293 96.214 17.4307C96.4846 17.8321 96.9355 18.0556 97.5666 18.1011C98.1803 18.1454 98.6947 18.0592 99.1098 17.8424C99.5312 17.6203 99.8606 17.2886 100.098 16.8475L100.494 11.3686L99.2402 11.0314L99.3206 9.9181L100.592 10.0099L102.319 10.1345L101.731 18.2696L102.801 18.5936L102.721 19.6981L100.082 19.5076L100.07 18.0968C99.7348 18.5837 99.3208 18.9474 98.8276 19.1879C98.3402 19.4288 97.7897 19.5271 97.1761 19.4828Z" fill="#0E1412"/>
<path d="M108.466 20.8121L108.753 19.7425L110.201 19.8759L111.961 13.314L110.641 12.7051L110.93 11.627L113.808 12.3989L113.638 13.6091L113.612 13.775C113.998 13.3751 114.416 13.093 114.867 12.9287C115.323 12.766 115.797 12.7506 116.29 12.8827C116.465 12.9297 116.639 12.9945 116.811 13.0771C116.99 13.1555 117.115 13.2194 117.187 13.269L116.55 14.7633L115.405 14.3834C114.971 14.2367 114.573 14.2391 114.211 14.3907C113.85 14.5366 113.536 14.78 113.269 15.1208L111.873 20.3245L113.193 20.9334L112.906 22.003L108.466 20.8121Z" fill="#0E1412"/>
<path d="M133.612 31.5808L136.621 19.6429L135.86 18.9491L136.493 18.0296L139.824 20.3216L139.191 21.2411L138.123 20.7304L135.87 29.0592L135.543 30.0613L135.586 30.0912L136.42 29.4379L143.486 24.4104L142.514 23.5281L143.147 22.6086L146.47 24.8957L145.837 25.8152L144.911 25.3481L134.835 32.4229L133.612 31.5808Z" fill="#0E1412"/>
<path d="M143.967 39.8682L144.761 39.0961L145.937 39.9515L150.807 35.2148L149.985 34.0162L150.785 33.238L152.991 35.5062L147.144 41.1928L147.966 42.3913L147.172 43.1634L143.967 39.8682ZM153.405 32.5659L154.734 31.2729L156.002 32.5771L154.673 33.8701L153.405 32.5659Z" fill="#0E1412"/>
<path d="M153.136 50.9334C152.702 50.2927 152.488 49.6351 152.491 48.9606C152.503 48.2877 152.711 47.638 153.115 47.0112C153.519 46.3845 154.099 45.8152 154.856 45.3031L155.009 45.1997C155.854 44.6286 156.676 44.2494 157.476 44.0621C158.276 43.8749 159.006 43.8936 159.668 44.1184C160.334 44.3399 160.885 44.7734 161.322 45.419C161.637 45.885 161.827 46.3542 161.892 46.8267C161.965 47.3007 161.924 47.7739 161.769 48.2462L164.98 46.075L164.382 44.7504L165.306 44.1251L166.109 45.3119L167.079 46.7462L156.842 53.6684L157.441 54.993L156.523 55.6134L154.879 53.1816L155.739 52.43C155.206 52.4157 154.721 52.284 154.284 52.035C153.85 51.7908 153.467 51.4236 153.136 50.9334ZM154.547 50.5097C154.836 50.9368 155.176 51.2303 155.567 51.3903C155.958 51.5502 156.394 51.605 156.877 51.5547L160.532 49.0832C160.737 48.6755 160.837 48.258 160.831 47.8307C160.825 47.4033 160.682 46.9833 160.403 46.5708C160.094 46.1145 159.709 45.827 159.247 45.7081C158.789 45.586 158.281 45.608 157.721 45.7742C157.166 45.9372 156.586 46.2238 155.979 46.634L155.826 46.7374C155.035 47.2724 154.509 47.865 154.248 48.5151C153.988 49.1653 154.087 49.8301 154.547 50.5097Z" fill="#0E1412"/>
<path d="M160.848 65.0456C160.513 64.2332 160.405 63.4504 160.525 62.6972C160.651 61.9417 160.976 61.2624 161.5 60.6593C162.027 60.0616 162.724 59.5839 163.59 59.2262L163.948 59.0786C164.782 58.7343 165.597 58.5975 166.393 58.6682C167.197 58.7421 167.906 58.9851 168.52 59.3973C169.141 59.8126 169.592 60.3588 169.871 61.0358C170.197 61.8266 170.308 62.5544 170.202 63.2193C170.098 63.8897 169.807 64.4821 169.329 64.9966C168.855 65.5088 168.221 65.9293 167.425 66.2579L166.425 66.6704L164.071 60.9673L164.02 60.9597C163.462 61.2031 163.001 61.5073 162.638 61.8726C162.283 62.241 162.054 62.6527 161.95 63.1075C161.846 63.5624 161.896 64.0363 162.099 64.5292C162.323 65.0708 162.594 65.5134 162.914 65.857C163.241 66.2038 163.601 66.4702 163.995 66.6563L163.213 67.7111C162.78 67.5222 162.351 67.2114 161.925 66.7786C161.507 66.349 161.148 65.7714 160.848 65.0456ZM165.342 60.4996L167.016 64.5535L167.227 64.4663C167.649 64.292 167.995 64.0607 168.262 63.7727C168.538 63.4879 168.709 63.1574 168.775 62.7812C168.85 62.4083 168.795 61.9998 168.612 61.5556C168.464 61.1982 168.225 60.9168 167.893 60.7115C167.566 60.504 167.185 60.3793 166.749 60.3373C166.313 60.2953 165.856 60.3384 165.376 60.4666L165.342 60.4996Z" fill="#0E1412"/>
<path d="M165.038 78.8987C164.867 78.0365 164.922 77.2523 165.2 76.5463C165.486 75.8449 165.952 75.2543 166.597 74.7744C167.249 74.2933 168.035 73.962 168.954 73.7804L169.144 73.743C170.064 73.5614 170.914 73.5698 171.693 73.7682C172.479 73.9655 173.137 74.3343 173.668 74.8745C174.2 75.4205 174.549 76.1189 174.717 76.9696C174.888 77.8319 174.83 78.6137 174.544 79.3151C174.26 80.0223 173.795 80.6158 173.149 81.0957C172.503 81.5756 171.718 81.9069 170.792 82.0897L170.602 82.1271C169.677 82.3098 168.821 82.3026 168.036 82.1053C167.256 81.9069 166.604 81.537 166.079 80.9956C165.554 80.4542 165.207 79.7553 165.038 78.8987ZM166.366 78.6366C166.472 79.1769 166.708 79.5992 167.073 79.9035C167.444 80.2124 167.904 80.4083 168.452 80.4912C169.007 80.5788 169.612 80.5578 170.267 80.4285L170.457 80.391C171.112 80.2616 171.677 80.0516 172.151 79.7609C172.632 79.4748 172.983 79.1188 173.203 78.693C173.43 78.2661 173.489 77.7796 173.381 77.2335C173.274 76.6932 173.035 76.2686 172.664 75.9597C172.298 75.6497 171.838 75.4537 171.284 75.3719C170.736 75.289 170.135 75.3122 169.479 75.4416L169.29 75.4791C168.634 75.6085 168.066 75.8162 167.585 76.1023C167.11 76.3873 166.759 76.7432 166.533 77.1701C166.313 77.6016 166.258 78.0905 166.366 78.6366Z" fill="#0E1412"/>
</svg>
